#!OML:ASF I:\Actors\actors\Patient Classification 1\Patient 1\Session 1\Subject1.ASF
:FULLY-SPECIFIED
:DEGREES
771
root 0.795132 17.4433 9.57469 8.99383 2.31402 -8.20608
lowerback -4.73129 0.946932 5.35334
upperback -10.0675 1.44439 2.43015
thorax -7.88618 0.431896 -0.453732
lowerneck -9.43114 -5.99594 -5.95055
upperneck 29.1024 -10.4846 10.0075
head 11.9531 -4.25122 3.36262
rclavicle 2.50966e-015 1.03368e-014
rhumerus -51.9842 -2.28941 -85.6957
rradius 82.9437
rwrist 40.4484
rhand 23.1152 -27.503
rfingers 7.12502
rthumb 47.4253 -49.9796
lclavicle 2.50966e-015 1.03368e-014
lhumerus 12.5054 -34.5632 83.5521
lradius 145.426
lwrist 24.1863
lhand -23.8278 -4.89913
lfingers 7.12502
lthumb 2.64367 25.0642
rfemur -1.83473 24.1877 25.3034
rtibia 2.77629
rfoot -14.8442 -28.0369
rtoes 6.15673
lfemur 7.60799 -48.4534 -15.2978
ltibia -5.11748
lfoot -22.8207 53.6261
ltoes 10.3425
772
root 0.794778 17.4432 9.57397 9.00533 2.31449 -8.21584
lowerback -4.75605 0.956649 5.37318
upperback -10.0636 1.4548 2.42131
thorax -7.86667 0.435643 -0.473915
lowerneck -9.39344 -5.97678 -5.90722
upperneck 29.0586 -10.4527 9.9812
head 11.9201 -4.23751 3.34984
rclavicle -1.44367e-014 6.36111e-015
rhumerus -51.9901 -2.3625 -85.6943
rradius 82.9426
rwrist 40.4466
rhand 22.9199 -27.3597
rfingers 7.12502
rthumb 47.2448 -49.9173
lclavicle -1.44367e-014 6.36111e-015
lhumerus 12.5191 -34.5612 83.5519
lradius 145.427
lwrist 24.2024
lhand -23.7876 -4.79851
lfingers 7.12502
lthumb 2.6825 25.1644
rfemur -1.8608 24.1565 25.3024
rtibia 2.77937
rfoot -14.8017 -28.0022
rtoes 6.07456
lfemur 7.5656 -48.406 -15.2588
ltibia -5.09898
lfoot -22.8126 53.5763
ltoes 10.2699
773
root 0.794471 17.4432 9.57368 8.99556 2.32663 -8.21072
lowerback -4.76907 0.963785 5.39169
upperback -10.0491 1.4617 2.40593
thorax -7.84209 0.437679 -0.500418
lowerneck -9.38849 -5.97047 -5.91033
upperneck 29.0493 -10.4444 9.99158
head 11.9154 -4.23324 3.35548
rclavicle -7.97623e-015 8.64713e-015
rhumerus -51.999 -2.46762 -85.6995
rradius 82.9537
rwrist 40.4775
rhand 22.6857 -27.1756
rfingers 7.12502
rthumb 47.0283 -49.8293
lclavicle -7.97623e-015 8.64713e-015
lhumerus 12.5327 -34.5559 83.5748
lradius 145.424
lwrist 24.2549
lhand -23.7096 -4.85106
lfingers 7.12502
lthumb 2.7578 25.1109
rfemur -1.84696 24.1233 25.2984
rtibia 2.76684
rfoot -14.8082 -27.9736
rtoes 6.14189
lfemur 7.5334 -48.3231 -15.2468
ltibia -5.07109
lfoot -22.5928 53.5205
ltoes 9.97372
774
root 0.79355 17.4427 9.5728 8.99376 2.33275 -8.17321
lowerback -4.7777 0.961332 5.36302
upperback -10.0411 1.45658 2.39468
thorax -7.82828 0.437162 -0.496238
lowerneck -9.39862 -5.96301 -5.92901
upperneck 29.0513 -10.4312 9.99864
head 11.9184 -4.22806 3.36309
rclavicle 2.48481e-016 -2.44505e-014
rhumerus -52.0071 -2.53625 -85.7145
rradius 82.9774
rwrist 40.4477
rhand 22.4179 -27.0483
rfingers 7.12502
rthumb 46.7805 -49.8107
lclavicle 2.48481e-016 -2.44505e-014
lhumerus 12.5532 -34.5472 83.5886
lradius 145.414
lwrist 24.2884
lhand -23.7071 -4.94319
lfingers 7.12502
lthumb 2.76021 25.0187
rfemur -1.84905 24.0654 25.246
rtibia 2.74857
rfoot -14.8105 -27.9231
rtoes 6.14165
lfemur 7.487 -48.2503 -15.2535
ltibia -5.04765
lfoot -22.394 53.46
ltoes 9.80474
775
root 0.792584 17.4423 9.57199 8.99396 2.32759 -8.13335
lowerback -4.78888 0.955421 5.31804
upperback -10.0388 1.44746 2.39314
thorax -7.81996 0.436132 -0.472638
lowerneck -9.41055 -5.94032 -5.92971
upperneck 29.0572 -10.3958 9.99274
head 11.9191 -4.21224 3.36597
rclavicle -4.64659e-015 3.77691e-015
rhumerus -52.0103 -2.53044 -85.7332
rradius 82.9884
rwrist 40.3412
rhand 21.9974 -27.2921
rfingers 7.12502
rthumb 46.391 -50.2221
lclavicle -4.64659e-015 3.77691e-015
lhumerus 12.5622 -34.5374 83.6008
lradius 145.419
lwrist 24.2892
lhand -23.7073 -5.0477
lfingers 7.12502
lthumb 2.76006 24.9142
rfemur -1.85544 24.0152 25.1925
rtibia 2.73753
rfoot -14.7865 -27.8826
rtoes 6.01963
lfemur 7.47542 -48.2499 -15.2913
ltibia -5.03255
lfoot -22.5858 53.4181
ltoes 10.103
776
root 0.792163 17.4424 9.57222 8.98519 2.32353 -8.11533
lowerback -4.81106 0.949883 5.30482
upperback -10.0367 1.43803 2.39161
thorax -7.80529 0.432687 -0.466454
lowerneck -9.41417 -5.91408 -5.94408
upperneck 29.0853 -10.366 10.0212
head 11.9306 -4.19622 3.38428
rclavicle -1.0138e-014 1.15295e-014
rhumerus -52.0284 -2.53178 -85.7472
rradius 82.9918
rwrist 40.312
rhand 21.5689 -27.7939
rfingers 7.12502
rthumb 45.9938 -50.891
lclavicle -1.0138e-014 1.15295e-014
lhumerus 12.532 -34.5192 83.6117
lradius 145.438
lwrist 24.3086
lhand -23.6623 -5.1136
lfingers 7.12502
lthumb 2.80352 24.8477
rfemur -1.84256 24.0095 25.1808
rtibia 2.74805
rfoot -14.8051 -27.8709
rtoes 6.04395
lfemur 7.49872 -48.2715 -15.3364
ltibia -5.02107
lfoot -22.782 53.4049
ltoes 10.3619
777
root 0.792008 17.4429 9.57231 8.97952 2.32982 -8.13755
lowerback -4.84013 0.938471 5.33624
upperback -10.035 1.42055 2.39532
thorax -7.78732 0.422191 -0.479226
lowerneck -9.41312 -5.89237 -5.94029
upperneck 29.1354 -10.3481 10.0438
head 11.9498 -4.18396 3.39618
rclavicle 3.42904e-015 1.3418e-014
rhumerus -52.049 -2.578 -85.764
rradius 83.0067
rwrist 40.3711
rhand 21.3073 -28.0039
rfingers 7.12502
rthumb 45.7509 -51.2014
lclavicle 3.42904e-015 1.3418e-014
lhumerus 12.4987 -34.4965 83.5955
lradius 145.455
lwrist 24.3292
lhand -23.6785 -5.11032
lfingers 7.12502
lthumb 2.7878 24.8512
rfemur -1.82911 24.0038 25.2139
rtibia 2.75177
rfoot -14.8166 -27.8595
rtoes 6.11887
lfemur 7.50167 -48.2716 -15.3106
ltibia -5.02279
lfoot -22.8849 53.3909
ltoes 10.5698
778
root 0.791435 17.4434 9.57142 8.99126 2.35341 -8.19668
lowerback -4.86989 0.924936 5.38328
upperback -10.0386 1.40184 2.42081
thorax -7.77565 0.410768 -0.477655
lowerneck -9.40448 -5.86884 -5.92146
upperneck 29.1444 -10.3161 10.0353
head 11.9465 -4.16858 3.39484
rclavicle 1.70458e-014 -7.15625e-015
rhumerus -52.032 -2.60829 -85.767
rradius 83.0249
rwrist 40.358
rhand 21.1712 -28.0449
rfingers 7.12502
rthumb 45.6245 -51.2941
lclavicle 1.70458e-014 -7.15625e-015
lhumerus 12.4937 -34.468 83.5859
lradius 145.473
lwrist 24.3294
lhand -23.7357 -5.16573
lfingers 7.12502
lthumb 2.73263 24.7965
rfemur -1.84261 24.0152 25.2815
rtibia 2.74327
rfoot -14.7969 -27.8862
rtoes 6.10023
lfemur 7.45074 -48.2612 -15.1854
ltibia -5.03687
lfoot -23.0055 53.351
ltoes 10.7933
779
root 0.79083 17.4437 9.5702 8.98106 2.37914 -8.22261
lowerback -4.86408 0.912926 5.39325
upperback -10.0367 1.38734 2.44063
thorax -7.77812 0.403719 -0.462129
lowerneck -9.42006 -5.85416 -5.95719
upperneck 29.1542 -10.3014 10.0803
head 11.9572 -4.15979 3.42019
rclavicle 1.13307e-014 -4.35338e-014
rhumerus -52.007 -2.57251 -85.8248
rradius 83.0244
rwrist 39.965
rhand 20.569 -28.0608
rfingers 7.12502
rthumb 45.0647 -51.5348
lclavicle 1.13307e-014 -4.35338e-014
lhumerus 12.4928 -34.4358 83.6062
lradius 145.487
lwrist 24.3148
lhand -23.6586 -5.19287
lfingers 7.12502
lthumb 2.80709 24.7684
rfemur -1.83525 24.0093 25.3209
rtibia 2.73737
rfoot -14.7873 -27.9126
rtoes 5.97809
lfemur 7.4491 -48.2597 -15.1388
ltibia -5.05438
lfoot -22.9501 53.3301
ltoes 10.7047
780
root 0.789915 17.4437 9.56922 8.95905 2.39401 -8.20037
lowerback -4.83081 0.903259 5.36576
upperback -10.0375 1.3767 2.43447
thorax -7.79861 0.399756 -0.45364
lowerneck -9.46959 -5.86449 -6.0215
upperneck 29.2246 -10.3357 10.1624
head 12.0086 -4.16927 3.4582
rclavicle 2.26366e-014 -4.21423e-014
rhumerus -52.0154 -2.45864 -86.023
rradius 82.9521
rwrist 39.0092
rhand 18.6993 -28.0702
rfingers 7.12502
rthumb 43.3215 -52.2015
lclavicle 2.26366e-014 -4.21423e-014
lhumerus 12.468 -34.423 83.6399
lradius 145.501
lwrist 24.3004
lhand -23.514 -5.10607
lfingers 7.12502
lthumb 2.94675 24.8533
rfemur -1.81178 23.9591 25.3067
rtibia 2.72931
rfoot -14.7525 -27.9018
rtoes 5.83062
lfemur 7.49608 -48.3119 -15.203
ltibia -5.05213
lfoot -22.8552 53.377
ltoes 10.4998
781
root 0.788597 17.4436 9.56881 8.95628 2.40329 -8.15793
lowerback -4.81254 0.896558 5.31456
upperback -10.0511 1.36899 2.4194
thorax -7.82445 0.398391 -0.441186
lowerneck -9.47499 -5.87077 -6.03281
upperneck 29.2532 -10.3536 10.1862
head 12.0254 -4.1749 3.46728
rclavicle -1.19519e-014 -1.00386e-014
rhumerus -51.9923 -2.61655 -85.881
rradius 83.0212
rwrist 39.5412
rhand 19.8002 -27.5706
rfingers 7.12502
rthumb 44.3489 -51.3221
lclavicle -1.19519e-014 -1.00386e-014
lhumerus 12.4612 -34.4306 83.656
lradius 145.508
lwrist 24.2995
lhand -23.5003 -5.04494
lfingers 7.12502
lthumb 2.95997 24.9143
rfemur -1.80347 23.9605 25.2645
rtibia 2.71917
rfoot -14.732 -27.9312
rtoes 5.82041
lfemur 7.48916 -48.3429 -15.2539
ltibia -5.02512
lfoot -22.9206 53.3878
ltoes 10.5774
